<?xml version="1.0" encoding="utf-8"?>
<!-- Generator: Adobe Illustrator 28.3.0, SVG Export Plug-In . SVG Version: 6.00 Build 0)  -->
<svg version="1.1" id="Layer_1" xmlns="http://www.w3.org/2000/svg" xmlns:xlink="http://www.w3.org/1999/xlink" x="0px" y="0px"
	 viewBox="0 0 1000 225" style="enable-background:new 0 0 1000 225;" xml:space="preserve">
<style type="text/css">
	.st0{fill:#E33E3F;}
	.st1{fill:#FFFFFF;}
</style>
<path class="st0" d="M961.9,225H38.1C17.1,225,0,207.9,0,186.9V38.1C0,17.1,17.1,0,38.1,0h923.8c21,0,38.1,17.1,38.1,38.1v148.8
	C1000,207.9,982.9,225,961.9,225z"/>
<g>
	<path class="st1" d="M128.5,123.6c-10.4,0-20.8,0-31.2,0c-3.8,0-5-1.3-5-5.1c0-6.6-0.1-13.3,0.1-19.9c0.5-16.2,12.8-28.4,29.1-28.7
		c5.2-0.1,10.5-0.1,15.7,0.1c12.6,0.6,23.4,9.5,26.5,21.7c0.7,2.7,1,5.4,1,8.2c0.1,6.4,0,12.8,0,19.1c0,3.1-1.4,4.5-4.5,4.5
		C149.6,123.6,139,123.6,128.5,123.6z M128.3,101.4c5.7,0.1,10.6-4.6,10.8-10.4c0.1-5.7-4.6-10.6-10.4-10.8
		c-5.7-0.2-10.6,4.6-10.7,10.4C117.8,96.5,122.5,101.3,128.3,101.4z"/>
	<path class="st1" d="M128.6,131.5c10.5,0,21,0,31.5,0c3.1,0,4.5,1.4,4.5,4.5c0,5.4,0,10.9,0,16.3c0,4.3-2.7,7-6.9,7
		c-19.5,0-39,0-58.5,0c-4,0-6.8-2.5-6.9-6.6c-0.1-5.7-0.1-11.5,0-17.2c0-2.6,1.6-4,4.2-4.1C107.2,131.4,117.9,131.5,128.6,131.5z"/>
	<path class="st1" d="M128.5,63.6c-5.1,0.4-10.1,0.8-15.2,1.3c-1.6,0.1-1.8-0.1-1.3-1.7c1.3-3.7,4.2-5.6,7.8-6.3
		c6-1.2,12.1-1.3,18.1,0.2c3.3,0.8,5.8,2.8,7,6.1c0.5,1.5,0.3,1.8-1.2,1.7C138.6,64.5,133.5,64,128.5,63.6z"/>
</g>
<g>
	<path class="st1" d="M579.9,113.4c14.4-1.4,18.9,4,18.9,10.3c0,6.9-7.6,14.5-23.5,14.5h-21v-0.4l3.9-3.7V93.7l-3.9-3.7v-0.4h22.4
		c14.3,0,19.7,4.2,19.7,10.6c0,6.6-5.7,11.2-16.3,12.7L579.9,113.4z M572,90.8v21.7h2.2c6.5-0.1,8-3.7,8-10.8
		c0-5.6-0.6-10.9-7.8-10.9H572z M583.8,125.1c0-8.6-3.4-11.3-9.4-11.3H572v23c0.6,0.1,0.7,0.1,2.3,0.1
		C580.7,136.7,583.8,133.3,583.8,125.1z"/>
	<path class="st1" d="M639.8,127.2l0.3,0.4c-4.4,6.2-7.4,11.4-11.9,11.4c-3.4,0-6-2.1-5.5-10.1h-0.4c-2.4,5.3-5.8,10.2-12.2,10.2
		c-4.9,0-8.3-2.9-8.3-7.7c0-6.8,6.5-10.4,12.5-13.2l7.9-3.5c0.1-7.3-2.2-12-5.7-11.7c-3,0.3-4.5,3.3-1.9,11.7l-13.3,3.7l-0.2-0.4
		c8.5-18.4,22.2-19.2,23.3-19.2c11.4,0,11.3,7.5,10.7,17.4l-0.6,12.7v1.1L639.8,127.2z M622.1,126.5l0.1-10.2
		c-6,4.1-8.3,7.1-8.3,10.2c0,3,1.9,4,3.2,4C618.6,130.4,620.7,129.3,622.1,126.5z"/>
	<path class="st1" d="M640.6,119.4c0-16.8,15.3-20.7,19.4-20.7c9.1,0,13.4,5.7,14,7.6l-12,10.2l-0.4-0.2c-0.9-7.1-4.2-14.3-8.1-14.3
		c-2.2,0-3.8,1.7-3.8,5.7c0,8.1,7.1,21.6,17.8,21.6c2,0,4.1-0.5,7-2l0.4,0.4c-6,6.7-11.7,11.4-14.1,11.4
		C649.3,139.2,640.6,131.9,640.6,119.4z"/>
	<path class="st1" d="M704,114.7l11.3,23v0.4h-17.5v-0.4l2.4-2.7l-7.8-15.8l-1,0.9v14.9l3.4,2.8v0.4h-19.4v-0.4l3.3-2.8V89.4
		l-4.5-1.6v-0.4l16.8-5.1h0.4v36.2l1.7-1.6c7.3-5.8,6.5-14.1,4-16.6v-0.4h18.1v0.4L693,118.7L704,114.7z"/>
	<path class="st1" d="M754.3,117.3c0,18.3-14.3,21.5-18.5,21.5c-1.3,0-2.5-0.1-3.7-0.3v14.3l3.4,2.8v0.4h-19.4v-0.4l3.4-2.8v-44.8
		l-5.4,2.7l-0.3-0.4c4.4-6.2,7.5-11.4,12-11.4c3.3,0,5.8,1.9,5.5,9.2h0.1c4.5-5,8.5-9.1,9.4-8.9
		C750.4,100.5,754.3,107.8,754.3,117.3z M741.7,124.9c0-10.5-1.4-17.4-5.8-17.4c-0.9,0-2.6,0.5-3.7,1.5v21.4c0.6,5,2.6,6.6,4.5,6.6
		C739.5,137,741.7,134.8,741.7,124.9z"/>
	<path class="st1" d="M795.1,127.2l0.3,0.4c-4.4,6.2-7.4,11.4-11.9,11.4c-3.4,0-6-2.1-5.5-10.1h-0.4c-2.4,5.3-5.8,10.2-12.2,10.2
		c-4.9,0-8.3-2.9-8.3-7.7c0-6.8,6.5-10.4,12.5-13.2l7.9-3.5c0.1-7.3-2.2-12-5.7-11.7c-3,0.3-4.5,3.3-1.9,11.7l-13.3,3.7l-0.2-0.4
		c8.5-18.4,22.2-19.2,23.3-19.2c11.4,0,11.3,7.5,10.7,17.4l-0.6,12.7v1.1L795.1,127.2z M777.4,126.5l0.1-10.2
		c-6,4.1-8.3,7.1-8.3,10.2c0,3,1.9,4,3.2,4C773.9,130.4,776,129.3,777.4,126.5z"/>
	<path class="st1" d="M795.9,119.4c0-16.8,15.3-20.7,19.4-20.7c9.1,0,13.4,5.7,14,7.6l-12,10.2l-0.4-0.2c-0.9-7.1-4.2-14.3-8.1-14.3
		c-2.2,0-3.8,1.7-3.8,5.7c0,8.1,7.1,21.6,17.8,21.6c2,0,4.1-0.5,7-2l0.4,0.4c-6,6.7-11.7,11.4-14.1,11.4
		C804.6,139.2,795.9,131.9,795.9,119.4z"/>
	<path class="st1" d="M859.3,114.7l11.3,23v0.4h-17.5v-0.4l2.4-2.7l-7.8-15.8l-1,0.9v14.9l3.4,2.8v0.4h-19.4v-0.4l3.3-2.8V89.4
		l-4.5-1.6v-0.4l16.8-5.1h0.4v36.2l1.7-1.6c7.3-5.8,6.5-14.1,4-16.6v-0.4h18.1v0.4l-22.2,18.5L859.3,114.7z"/>
</g>
<rect x="257.5" y="110.9" class="st1" width="214.8" height="3.1"/>
</svg>
