<?xml version="1.0" encoding="UTF-8"?><svg id="uuid-6e742d12-4581-4be2-9e71-ed46e8a83dc3" xmlns="http://www.w3.org/2000/svg" viewBox="0 0 1000 225"><g id="uuid-44b718a0-d19d-412a-88fd-c14b6b3a8c62"><path d="M961.9,225H38.1c-21,0-38.1-17.1-38.1-38.1V38.1C0,17.1,17.1,0,38.1,0h923.8c21,0,38.1,17.1,38.1,38.1v148.8c0,21-17.1,38.1-38.1,38.1Z" style="fill:#e42575; stroke-width:0px;"/><rect x="257.5" y="110.9" width="214.8" height="3.1" style="fill:#fff; stroke-width:0px;"/><path d="M603.41,91.56l-2.77,3.8.07,45.04h-18.18v-.44l3.94-3.8-.07-34.46h-.44l-12.19,30h-.8l-14.38-29.35h-.36v4.89c0,7.64,1.13,14.06,3.39,19.27,2.26,5.21,5.73,9.71,10.4,13.5v.37h-15.4v-41.54l-4.09-7.3v-.44l15.77-.15,10.59,22.34h.36l8.91-22.19h15.26v.44Z" style="fill:#fff; stroke-width:0px;"/><path d="M646.04,129.3l.29.37-1.61,2.26c-2.29,3.31-4.16,5.69-5.62,7.15s-3.07,2.19-4.82,2.19-3.13-.61-4.12-1.83c-1-1.22-1.5-3.31-1.5-6.28,0-.92.02-1.63.07-2.12h-.37c-1.41,3.16-3.09,5.67-5.04,7.52-1.95,1.85-4.41,2.77-7.37,2.77-2.53,0-4.56-.69-6.1-2.08-1.53-1.39-2.3-3.3-2.3-5.73,0-3.07,1.14-5.62,3.43-7.67,2.29-2.04,5.38-3.97,9.27-5.77l8.03-3.5c.05-3.6-.44-6.48-1.46-8.65-1.02-2.16-2.38-3.25-4.09-3.25-1.07,0-1.92.39-2.55,1.17-.63.78-.95,1.97-.95,3.58,0,1.95.44,4.31,1.31,7.08l-13.5,3.8-.22-.36c2.58-5.55,5.55-9.77,8.91-12.67,3.36-2.9,6.34-4.76,8.94-5.58,2.6-.83,4.54-1.24,5.8-1.24,2.97,0,5.26.47,6.86,1.42,1.61.95,2.7,2.29,3.28,4.01.58,1.73.88,3.88.88,6.46,0,1.8-.07,3.7-.22,5.69l-.66,12.92v1.1l5.4-2.77ZM625.75,131.53c.92-.66,1.73-1.64,2.41-2.96l.15-10.37c-3.02,2.04-5.17,3.87-6.46,5.48-1.29,1.61-1.93,3.21-1.93,4.82,0,1.36.34,2.37,1.02,3.03.68.66,1.41.99,2.19.99.83,0,1.7-.33,2.63-.99Z" style="fill:#fff; stroke-width:0px;"/><path d="M688.74,104.7c-2.68-.05-5.16-.23-7.45-.55-2.29-.32-4.7-.79-7.23-1.42l-.22.44c2.87,1.02,5.01,2.53,6.42,4.53,1.41,2,2.12,4.23,2.12,6.72,0,3.46-1.13,6.23-3.39,8.32-2.26,2.09-4.72,3.59-7.37,4.49-2.65.9-4.56,1.35-5.73,1.35-3.85,0-7.18-.95-10-2.85-.54.63-.8,1.51-.8,2.63,0,3.26,2.58,4.89,7.74,4.89l10.8.07c3.84,0,6.78.88,8.8,2.63,2.02,1.75,3.03,3.99,3.03,6.72s-.94,5.3-2.81,7.88c-1.87,2.58-4.45,4.7-7.74,6.35-3.28,1.65-6.9,2.48-10.84,2.48-4.38,0-8.36-.69-11.94-2.08-3.58-1.39-6.17-3.52-7.77-6.39-.29-.58,2.65-3.58,8.83-8.98-2.09-.78-3.74-1.95-4.93-3.5-1.19-1.56-1.79-3.31-1.79-5.26,0-.34.4-.89,1.2-1.64.8-.75,2.18-1.98,4.12-3.69l3.14-2.77c-1.61-1.26-2.86-2.77-3.76-4.53-.9-1.75-1.35-3.65-1.35-5.69,0-3.6,1.17-6.47,3.5-8.61,2.34-2.14,4.82-3.62,7.45-4.45,2.63-.83,4.4-1.24,5.33-1.24.88,0,2.34.15,4.38.44,2.63.39,4.84.58,6.64.58h11.61v3.14ZM659.47,143.1c-1.95,0-3.72-.27-5.33-.8-.44.58-.66,1.22-.66,1.9,0,1.7,1.12,3.09,3.36,4.16,2.24,1.07,4.89,1.85,7.96,2.34,3.07.49,5.91.73,8.54.73,2.77,0,5.04-.36,6.79-1.09s2.63-1.68,2.63-2.85c0-2.48-3.24-3.82-9.71-4.02l-13.58-.36ZM672.25,123.17c0-1.85-.61-4.53-1.83-8.03-2.73-8.13-5.52-12.19-8.39-12.19-1.66,0-2.48,1.07-2.48,3.21,0,1.8.61,4.5,1.83,8.1,2.82,8.08,5.67,12.12,8.54,12.12,1.56-.1,2.34-1.17,2.34-3.21Z" style="fill:#fff; stroke-width:0px;"/><path d="M691.88,137.12l.07-32.05-3.36-3.07v-.44h16.28v3.5l-.15,32.05,3.36,2.85v.44h-19.64v-.44l3.43-2.85ZM693.52,95.47c-1.19-1.09-1.79-2.54-1.79-4.34s.6-3.16,1.79-4.23c1.19-1.07,2.76-1.61,4.71-1.61s3.35.54,4.49,1.61c1.14,1.07,1.72,2.48,1.72,4.23s-.57,3.25-1.72,4.34c-1.14,1.1-2.64,1.64-4.49,1.64-1.95,0-3.52-.55-4.71-1.64Z" style="fill:#fff; stroke-width:0px;"/><path d="M719.99,139.09c-3.12-1.61-5.55-3.92-7.3-6.94-1.75-3.02-2.63-6.59-2.63-10.73,0-5.16,1.24-9.29,3.72-12.41,2.48-3.11,5.27-5.32,8.36-6.61,3.09-1.29,5.63-1.93,7.63-1.93,2.77,0,5.19.46,7.26,1.39,2.07.92,3.67,2,4.82,3.21,1.14,1.22,1.86,2.26,2.15,3.14l-12.19,10.37-.37-.22c-.44-3.8-1.45-7.17-3.03-10.11-1.58-2.94-3.32-4.42-5.22-4.42-1.17,0-2.11.47-2.81,1.42-.71.95-1.06,2.4-1.06,4.34,0,2.87.78,6.04,2.34,9.49,1.56,3.46,3.71,6.39,6.46,8.8,2.75,2.41,5.83,3.61,9.23,3.61,2.14,0,4.5-.68,7.08-2.04l.37.44c-3.16,3.5-6.04,6.31-8.61,8.43-2.58,2.12-4.48,3.18-5.69,3.18-3.89,0-7.4-.8-10.51-2.41Z" style="fill:#fff; stroke-width:0px;"/><path d="M787.66,119.67v20.73h-40.66v-.44l3.94-3.8v-40.81l-3.94-3.8v-.44h40.22v20.73h-.44l-4.09-6.35c-2.53-4.04-4.44-6.87-5.73-8.5-1.29-1.63-2.74-2.8-4.34-3.5-1.61-.71-3.84-1.06-6.72-1.06h-.73v22.48h.73c1.46,0,2.75-.23,3.87-.69,1.12-.46,2.29-1.42,3.5-2.88,1.22-1.46,2.58-3.62,4.09-6.5h.44v21.39h-.44c-2.19-3.94-4.12-6.61-5.8-7.99-1.68-1.39-3.57-2.08-5.66-2.08h-.73v22.92h1.17c2.87,0,5.11-.35,6.72-1.06,1.61-.71,3.05-1.87,4.34-3.5,1.29-1.63,3.2-4.46,5.73-8.5l.95-1.53,3.14-4.82h.44Z" style="fill:#fff; stroke-width:0px;"/><path d="M834.08,129.52l.29.36c-.88,1.27-1.36,1.97-1.46,2.12-2.34,3.36-4.25,5.78-5.73,7.26-1.49,1.48-3.13,2.23-4.93,2.23s-3.29-.68-4.31-2.04c-1.02-1.36-1.46-3.75-1.31-7.15h-.07v.07c-2.43,2.73-4.53,4.93-6.28,6.61-1.75,1.68-2.85,2.49-3.29,2.45-4.67-.58-8.13-2.49-10.37-5.73-2.24-3.24-3.36-7.41-3.36-12.52,0-5.6,1.16-10.02,3.47-13.29,2.31-3.26,4.93-5.5,7.85-6.72,2.92-1.22,5.43-1.83,7.52-1.83,1.41,0,2.6.1,3.58.29v-10.66l-4.53-1.61v-.44l17.01-5.18h.07l.44-.15v48.62l5.4-2.7ZM807.4,128.61c.9,3.04,2.42,4.56,4.56,4.56.54,0,1.16-.13,1.86-.4.71-.27,1.33-.64,1.86-1.13v-21.97c-.29-2.29-.86-3.93-1.71-4.93-.85-1-1.81-1.5-2.88-1.5-1.56,0-2.79.89-3.69,2.66-.9,1.78-1.35,4.98-1.35,9.6,0,5.69.45,10.06,1.35,13.1Z" style="fill:#fff; stroke-width:0px;"/><path d="M869.56,130.03c-6.96,7.64-11.61,11.46-13.94,11.46-3.89,0-7.42-.82-10.58-2.45-3.16-1.63-5.65-3.94-7.45-6.94-1.8-2.99-2.7-6.51-2.7-10.55,0-5.21,1.26-9.39,3.8-12.56,2.53-3.16,5.37-5.38,8.5-6.64,3.14-1.26,5.71-1.9,7.7-1.9,4.38,0,7.76,1.2,10.15,3.61,2.38,2.41,3.72,5.56,4.01,9.45,0,.63-.83,1.47-2.48,2.52-1.65,1.05-3.53,1.97-5.62,2.77-2.09.8-3.65,1.2-4.67,1.2h-9.34c1.51,3.41,3.58,6.21,6.21,8.4s5.69,3.29,9.2,3.29c1.07,0,2.13-.16,3.17-.47,1.05-.32,2.27-.84,3.69-1.57l.37.36ZM845.87,105.51c-.75,1.12-1.13,2.73-1.13,4.82,0,2.63.56,5.43,1.68,8.4h9.56c-.05-2.77-.4-5.29-1.06-7.56-.66-2.26-1.53-4.05-2.63-5.37-1.09-1.31-2.3-1.97-3.61-1.97-1.12,0-2.06.56-2.81,1.68Z" style="fill:#fff; stroke-width:0px;"/><path d="M909.56,137.12l3.43,2.85v.44h-19.64v-.44l3.36-2.85v-22.92c0-3.16-1.31-4.75-3.94-4.75-1.7,0-3.14.83-4.31,2.48v25.19l3.36,2.85v.44h-19.64v-.44l3.43-2.85v-27.3l-5.47,2.7-.29-.36,1.53-2.19c1.61-2.29,2.89-4.03,3.87-5.22.97-1.19,2.02-2.18,3.14-2.96,1.12-.78,2.29-1.17,3.5-1.17,1.75,0,3.13.61,4.12,1.83,1,1.22,1.5,3.31,1.5,6.28,0,.97-.03,1.75-.07,2.34h.07c5.11-7.01,8.78-10.51,11.02-10.51,3.84,0,6.67,1.18,8.47,3.54,1.8,2.36,2.7,5.44,2.7,9.23l-.15,23.8Z" style="fill:#fff; stroke-width:0px;"/><path d="M163.43,88.74l8.6,10.11c.98,1.14,1.86,2.07,2.21,2.6,2.57,2.56,4.01,6.01,4.01,9.61-.24,4.25-3.01,7.14-5.57,10.23l-6.02,7.07-3.14,3.66c-.11.13-.19.28-.21.45-.02.17,0,.34.08.49.07.15.19.28.34.37.15.09.31.13.48.12h31.38c4.79,0,10.83,4.03,10.48,10.14,0,2.78-1.13,5.44-3.13,7.41-1.99,1.97-4.7,3.07-7.52,3.08h-49.14c-3.23,0-11.93.35-14.36-7.07-.52-1.55-.59-3.21-.2-4.8.71-2.35,1.83-4.55,3.31-6.52,2.47-3.66,5.15-7.32,7.78-10.88,3.4-4.65,6.89-9.15,10.33-13.9.12-.15.19-.34.19-.54s-.07-.39-.19-.54l-12.49-14.65c-.08-.11-.19-.19-.31-.25-.12-.06-.25-.09-.39-.09s-.27.03-.39.09c-.12.06-.23.15-.31.25-3.34,4.45-17.98,24.15-21.11,28.14-3.12,3.99-10.81,4.21-15.07,0l-19.53-19.32c-.12-.12-.28-.21-.46-.24-.17-.03-.35-.02-.52.05-.16.07-.3.18-.4.32-.1.14-.15.32-.15.49v37.15c.05,2.64-.75,5.22-2.27,7.39s-3.69,3.82-6.21,4.71c-1.61.55-3.33.72-5.01.48-1.69-.24-3.29-.87-4.68-1.84-1.39-.97-2.52-2.26-3.31-3.75-.78-1.49-1.19-3.14-1.2-4.82v-66.79c.11-2.41.99-4.72,2.51-6.6,1.52-1.89,3.61-3.25,5.96-3.9,2.02-.53,4.14-.52,6.16.02,2.02.54,3.85,1.6,5.32,3.06l30.02,29.63c.09.09.2.16.32.2.12.04.25.06.38.05.13-.01.25-.05.36-.11.11-.06.21-.15.28-.25l21.33-29.09c.99-1.18,2.22-2.14,3.62-2.8,1.4-.66,2.93-1.01,4.48-1.03h55.48c1.52,0,3.02.32,4.4.94,1.38.62,2.61,1.52,3.61,2.65,1,1.13,1.74,2.45,2.18,3.88.44,1.43.56,2.94.36,4.42-.39,2.57-1.72,4.92-3.73,6.6-2.01,1.68-4.58,2.59-7.22,2.55h-31.06c-.16,0-.31.05-.44.13-.13.08-.24.2-.31.33-.07.14-.11.29-.1.44s.06.3.14.43Z" style="fill:#fff; stroke-width:0px;"/></g></svg>