<?xml version="1.0" encoding="utf-8"?>
<!-- Generator: Adobe Illustrator 28.3.0, SVG Export Plug-In . SVG Version: 6.00 Build 0)  -->
<svg version="1.1" id="Layer_1" xmlns="http://www.w3.org/2000/svg" xmlns:xlink="http://www.w3.org/1999/xlink" x="0px" y="0px"
	 viewBox="0 0 1000 225" style="enable-background:new 0 0 1000 225;" xml:space="preserve">
<style type="text/css">
	.st0{fill:#9285BF;}
	.st1{fill:#FFFFFF;}
</style>
<path class="st0" d="M961.9,225H38.1C17.1,225,0,207.9,0,186.9V38.1C0,17.1,17.1,0,38.1,0h923.8c21,0,38.1,17.1,38.1,38.1v148.8
	C1000,207.9,982.9,225,961.9,225z"/>
<g>
	<path class="st1" d="M582.7,121.4v12.3l3.7,4v0.4h-21.5v-0.4l3.7-4l0.1-40l-3.9-3.7v-0.4h18.6c14.9,0,23.8,2.7,23.8,14.8
		c0,10.5-7.8,17-21.7,17H582.7z M582.7,90.9v29.2h1.9c5.5,0,8.6-2.4,8.6-14.9c0-11.5-2.9-14.3-9-14.3H582.7z"/>
	<path class="st1" d="M646.2,134.9l3.3,2.8v0.4h-19.4v-0.4l3.4-2.8v-22.6c0-3.6-1.8-4.7-4-4.7c-1.9,0-3.3,1.2-4.4,2.7v24.6l3.4,2.8
		v0.4h-19.4v-0.4l3.3-2.8V89.4l-4.5-1.6v-0.4l16.8-5.1h0.4v25.9c4.5-5.9,7.9-9.3,10.1-9.3c8.1,0,11,5.7,11,12.6L646.2,134.9z"/>
	<path class="st1" d="M689.7,127.2l0.3,0.4c-4.4,6.2-7.4,11.4-11.9,11.4c-3.4,0-6-2.1-5.5-10.1h-0.4c-2.4,5.3-5.8,10.2-12.2,10.2
		c-4.9,0-8.3-2.9-8.3-7.7c0-6.8,6.5-10.4,12.5-13.2l7.9-3.5c0.1-7.3-2.2-12-5.7-11.7c-3,0.3-4.5,3.3-1.9,11.7l-13.3,3.7l-0.2-0.4
		c8.5-18.4,22.2-19.2,23.3-19.2c11.4,0,11.3,7.5,10.7,17.4l-0.6,12.7v1.1L689.7,127.2z M672.1,126.5l0.1-10.2
		c-6,4.1-8.3,7.1-8.3,10.2c0,3,1.9,4,3.2,4C668.5,130.4,670.6,129.3,672.1,126.5z"/>
	<path class="st1" d="M728.1,134.9l3.4,2.8v0.4h-19.4v-0.4l3.3-2.8v-22.6c0-3.6-1.7-4.7-3.9-4.7c-1.9,0-3.2,1-4.2,2.4v24.8l3.3,2.8
		v0.4h-19.4v-0.4l3.4-2.8V108l-5.4,2.7l-0.3-0.4c4.4-6.1,7.5-11.4,11.9-11.4c3.5,0,6.1,2.1,5.5,10.3h0.1c4.8-6.6,8.6-10.4,10.9-10.4
		c8,0,11,5.7,11,12.6L728.1,134.9z"/>
	<path class="st1" d="M757.1,129.2c-5.3,6.9-9.1,10-11.7,10c-5.8,0-8.6-3.5-8.7-11.4l-0.2-25.1l-4.2-2.4v-0.4h5.5l10.6-12.2h0.5
		v12.2h7.8v3.1c-3.2,0-5.5-0.2-7.8-0.6l-0.1,22.5c0,3.7,1.6,5.6,4.1,5.6c1.2,0,2.4-0.4,4-1.5L757.1,129.2z"/>
	<path class="st1" d="M758.1,119.8c0-17.6,16-21,18.5-21c11.4,0,18.7,8.9,18.7,19.7c0,17.4-16,20.7-18.6,20.7
		C765.3,139.2,758.1,130.3,758.1,119.8z M781.9,117.9c-4.1-11.7-7.9-16.6-11.4-15.6c-2.6,0.9-3,6,0.9,17.9
		c4,11.7,8.1,16.7,11.8,15.6C785.5,134.7,785.9,129.6,781.9,117.9z"/>
	<path class="st1" d="M856.2,134.9l3.3,2.8v0.4h-19.4v-0.4l3.4-2.8v-22.6c0-3.6-1.8-4.7-4-4.7c-1.9,0-3.2,1.1-4.3,2.5
		c0.1,0.4,0.1,0.9,0.1,1.3l-0.1,23.5l3.4,2.8v0.4h-19.4v-0.4l3.3-2.8v-22.6c0-3.6-1.7-4.7-3.9-4.7c-1.9,0-3.2,1-4.2,2.4v24.8
		l3.3,2.8v0.4h-19.4v-0.4l3.4-2.8V108l-5.4,2.7l-0.3-0.4c4.4-6.1,7.5-11.4,11.9-11.4c3.5,0,6.1,2.1,5.5,10.3h0.1
		c4.8-6.6,8.6-10.4,10.9-10.4c6.8,0,9.9,4,10.8,9.4c4.5-6,8-9.4,10.2-9.4c8.1,0,11,5.7,11,12.6L856.2,134.9z"/>
</g>
<rect x="257.5" y="110.9" class="st1" width="214.8" height="3.1"/>
<g>
	<path class="st1" d="M112.4,135.8c-2.9,3.3-5.6,6.7-8.6,9.9c-4.6,4.8-10.1,8.3-16.8,9.5c-2.9,0.5-5.8,0.6-8.7-0.2
		c-4.3-1.1-7.1-4.7-7.8-9.6c-1-7.4,0.6-14.3,3.3-21.1c4.2-10.6,10.4-19.8,18-28.2C101,86,111.5,77.5,124,71.8
		c7.8-3.5,16-5.7,24.6-5.5c7.8,0.2,15,2.3,20.6,8.1c4.4,4.5,6.7,10.1,7.5,16.3c2.1,16.5-2.5,31.3-12.6,44.4c-2.7,3.5-6,6.4-10.3,7.8
		c-1.5,0.5-3.2,0.8-4.8,0.8c-4.5,0-6.3-3-6-7.1c0-0.4,0.1-0.8,0.2-1.2c-1.9,2.2-3.6,4.4-5.6,6.4c-3.8,3.8-8.3,6.7-13.7,7.8
		c-5.8,1.2-10.6-1.1-11.6-5.9c-0.5-2.2-0.1-4.6-0.1-7C112.2,136.4,112.3,136,112.4,135.8z M163.3,96.6c-0.2-0.7-0.4-2.1-1-3.4
		c-1-2.1-2.8-3.2-5.2-3.2c-2.4,0-4.1,1.2-5.1,3.3c-1.2,2.6-1.2,5.3,0,7.9c1.6,3.4,6,4.3,8.8,1.9C162.7,101.6,163.2,99.5,163.3,96.6z
		 M132.8,97.1c0,0,0.1,0,0.2,0c0,0.5,0,0.9,0,1.4c0.3,3.3,2.5,5.7,5.4,5.9c3,0.3,5.7-1.6,6.2-4.9c0.3-1.8,0.1-3.9-0.3-5.7
		c-0.7-2.6-2.9-3.9-5.5-3.9c-2.5,0-4.5,1.5-5.3,4C133.1,95,133,96.1,132.8,97.1z"/>
</g>
</svg>
