<?xml version="1.0" encoding="utf-8"?>
<!-- Generator: Adobe Illustrator 28.3.0, SVG Export Plug-In . SVG Version: 6.00 Build 0)  -->
<svg version="1.1" id="Layer_1" xmlns="http://www.w3.org/2000/svg" xmlns:xlink="http://www.w3.org/1999/xlink" x="0px" y="0px"
	 viewBox="0 0 1000 225" style="enable-background:new 0 0 1000 225;" xml:space="preserve">
<style type="text/css">
	.st0{fill:#F68A22;}
	.st1{fill:#FFFFFF;}
</style>
<path class="st0" d="M961.9,225H38.1C17.1,225,0,207.9,0,186.9V38.1C0,17.1,17.1,0,38.1,0h923.8c21,0,38.1,17.1,38.1,38.1v148.8
	C1000,207.9,982.9,225,961.9,225z"/>
<g>
	<path class="st1" d="M616.4,110.1c7,4.1,10.9,8,10.9,14.1c0,7.7-6.2,15.3-18.6,15.3c-7,0-12.9-2.4-19.4-3.3l-1.2-22.2l0.5-0.1
		c8.7,17.3,23.6,21.5,29.1,21.5c3.2,0,4.2-1.4,4.2-2.8c0-3.2-5.9-6-12.7-10l-8.4-5.1c-6-3.6-11.2-7.3-11-15.1
		c0.1-10.2,8.3-13.9,18.3-13.9c5,0,9.1,1.4,11.7,3l4.6-2.9h0.4v20.9h-0.4c-8.1-10.9-18.1-17.8-25.3-17.8c-2.4,0-3.6,1.2-3.6,2.8
		c0,3,3.5,5,12.4,10.2L616.4,110.1z"/>
	<path class="st1" d="M630.6,119.8c0-17.6,16-21,18.5-21c11.4,0,18.7,8.9,18.7,19.7c0,17.4-16,20.7-18.6,20.7
		C637.8,139.2,630.6,130.3,630.6,119.8z M654.3,117.9c-4.1-11.7-7.9-16.6-11.4-15.6c-2.6,0.9-3,6,0.9,17.9
		c4,11.7,8.1,16.7,11.8,15.6C658,134.7,658.4,129.6,654.3,117.9z"/>
	<path class="st1" d="M688.7,137.7v0.4h-19.4v-0.4l3.3-2.8V89.4l-4.5-1.6v-0.4l16.8-5.1h0.4v52.6L688.7,137.7z"/>
	<path class="st1" d="M730.6,134.9l3.4,2.8v0.4h-19.4v-0.4l3.3-2.7v-32.3c-3.6-0.2-7.2-0.4-10.1-0.7v33l4.4,2.8v0.4h-20.4v-0.4
		l3.3-2.8l-0.2-32.2l-4.3-2.4v-0.4h4.3v-2.3c0.4-15,16.1-16.3,18.3-16.3c6.4,0,10.7,2,13.6,4.7l3.3-3.6h0.5V134.9z M717.8,99.9v-2.2
		c-2.3-7.1-7.6-12.9-11.4-12.9c-2.4,0-3.5,1.7-3.5,3.4c0,3.1,2.4,8.2,4.8,11.7H717.8z"/>
	<path class="st1" d="M774.6,127.2l0.3,0.4c-4.4,6.2-7.4,11.4-11.9,11.4c-3.4,0-6-2.1-5.5-10.1h-0.4c-2.4,5.3-5.8,10.2-12.2,10.2
		c-4.9,0-8.3-2.9-8.3-7.7c0-6.8,6.5-10.4,12.5-13.2l7.9-3.5c0.1-7.3-2.2-12-5.7-11.7c-3,0.3-4.5,3.3-1.9,11.7l-13.3,3.7L736,118
		c8.5-18.4,22.2-19.2,23.3-19.2c11.4,0,11.3,7.5,10.7,17.4l-0.6,12.7v1.1L774.6,127.2z M757,126.5l0.1-10.2c-6,4.1-8.3,7.1-8.3,10.2
		c0,3,1.9,4,3.2,4C753.5,130.4,755.6,129.3,757,126.5z"/>
	<path class="st1" d="M809.1,103c-0.9,2.2-4.4,9.9-8.4,9.9c-2.8,0-4.3-4-6.8-4c-0.4,0-1.3,0.6-1.7,1.7V135l3.3,2.7v0.4h-19.4v-0.4
		l3.4-2.8V108l-5.4,2.7l-0.3-0.4c4.4-6.1,7.5-11.4,11.9-11.4c3.4,0,6,2,5.5,10h0.6c2.6-3.5,6.8-10.1,8.2-10.1c1.7,0,4.7,4.7,7.2,4.7
		c0.8,0,1.2-0.2,1.6-0.7L809.1,103z"/>
	<path class="st1" d="M841,127.9c-6.1,6.7-11.3,11.3-13.8,11.3c-11.5,0-20.5-7.5-20.5-19.7c0-17.1,15.7-20.8,19.7-20.8
		c9.1,0,13.4,5.7,14,12.9c0,2-9.6,6.4-12.6,6.4h-9.2c2.7,6,7.8,11.5,15.2,11.5c2,0,3.9-0.5,6.8-2L841,127.9z M816.5,108.5
		c0,2.5,0.6,5.4,1.7,8.3h9.4c-0.1-8.4-3.2-14.7-7.2-14.7C818.3,102.1,816.5,104.2,816.5,108.5z"/>
</g>
<rect x="257.5" y="110.9" class="st1" width="214.8" height="3.1"/>
<g>
	<path class="st1" d="M105.8,78.3c0.8,0.4,1.5,0.7,2,1.1c2.2,1.6,4.4,3.3,6.6,5c2.9,2.2,6.1,2.6,9.4,1c3.2-1.5,4.9-4.2,5.2-7.8
		c0.5-7.1,1.2-14.2,1.8-21.3c0.1-1.3,0.4-2.5,1.8-3.1c1.7-0.6,3.4,0.4,3.6,2.3c1,6.8,1.9,13.7,2.8,20.5c0.5,3.9,2.2,6.8,5.9,8.2
		c3.6,1.3,6.8,0.5,9.7-2.2c9.5-8.7,19.2-17.4,28.7-26.1c0.3-0.2,0.5-0.5,0.8-0.7c0.8-0.7,1.9-0.8,2.4,0c0.4,0.6,0.4,1.9,0,2.4
		c-1.4,1.9-3,3.6-4.6,5.4c-7,8-13.9,16.1-21,24.1c-2.6,2.9-3.5,6.2-2,9.9c1.5,3.6,4.3,5.3,8.2,5.6c7.2,0.6,14.4,1.4,21.6,2.1
		c1.3,0.1,2.6,0.4,2.6,2.1c0.1,1.7-1.2,2.1-2.5,2.3c-7.7,1.2-15.3,2.4-23,3.5c-3.6,0.5-6.4,2.4-7.7,5.9c-1.2,3.5-0.5,6.6,2,9.4
		c2.6,3,5.1,6.1,7.7,9.1c0.8,0.9,1.2,1.9,0.3,2.9c-1,1.1-2,0.7-3,0c-3.2-2.4-6.4-4.8-9.5-7.2c-3-2.4-6.3-3-9.9-1.4
		c-3.5,1.6-5,4.5-5.3,8.3c-0.7,8.7-1.4,17.3-2.1,26c-0.1,1.3-0.6,2.4-2.1,2.5c-1.6,0.1-2.1-1.1-2.3-2.5c-1-6.9-1.9-13.9-2.9-20.8
		c-0.2-1.8-0.4-3.7-0.8-5.5c-0.7-3.4-2.6-5.7-5.9-6.8c-3.4-1.2-6.5-0.5-9.1,1.9c-9.1,8.3-18.2,16.6-27.3,24.9
		c-1.3,1.2-2.7,2.4-3.9,3.6c-0.9,0.8-1.8,1.4-2.8,0.4c-1-1-0.3-1.9,0.4-2.7c7.7-8.8,15.3-17.6,23-26.5c1.5-1.7,3.1-3.4,4.5-5.2
		c2.2-2.7,2.7-5.8,1.4-9.1c-1.3-3.3-3.8-5.2-7.4-5.6c-7.2-0.7-14.4-1.4-21.6-2.1c-2.5-0.2-3.6-0.9-3.5-2.3c0.2-2.1,1.8-2,3.3-2.2
		c7.7-1.2,15.5-2.4,23.1-3.7c6.7-1.2,9.6-8.9,5.4-14.3c-1.9-2.4-3.9-4.5-5.7-6.9c-0.5-0.7-0.6-1.9-0.4-2.8
		C104.1,79.2,105.1,78.8,105.8,78.3z"/>
	<path class="st1" d="M135.9,47.5c0,1.4-1.2,2.5-2.6,2.5c-1.4,0-2.5-1.2-2.5-2.6c0-1.3,1.1-2.3,2.5-2.3
		C134.8,45,135.9,46.1,135.9,47.5z"/>
	<path class="st1" d="M198.6,109.5c-1.4,0-2.6-1.1-2.5-2.5c0-1.4,1.2-2.5,2.6-2.4c1.3,0,2.4,1.2,2.5,2.4
		C201.2,108.3,200,109.5,198.6,109.5z"/>
	<path class="st1" d="M74.8,109.5c0,1.4-1.1,2.5-2.5,2.5c-1.3,0-2.5-1.2-2.4-2.6c0-1.3,1.1-2.4,2.4-2.4
		C73.6,107,74.8,108.2,74.8,109.5z"/>
	<path class="st1" d="M136.5,171.9c1.4,0,2.5,1.2,2.5,2.6c0,1.4-1.1,2.4-2.6,2.4c-1.3,0-2.4-1.1-2.4-2.4
		C133.9,173.1,135.1,171.9,136.5,171.9z"/>
</g>
</svg>
